<svg width="29" height="34" viewBox="0 0 29 34" fill="none" xmlns="http://www.w3.org/2000/svg">
<path d="M13.018 0H15.2711C15.8022 0.0665379 16.3423 0.120656 16.8743 0.200502C19.5692 0.606827 22.0746 1.49932 24.2356 3.20535C26.7711 5.20681 28.2274 7.81866 28.254 11.0764C28.3071 17.4489 28.2876 23.8232 28.2655 30.1976C28.2584 32.4057 26.5746 34 24.3454 34C17.5333 34 10.7203 33.9964 3.90646 33.9893C3.60884 33.99 3.31202 33.9585 3.02116 33.8953C1.19124 33.4837 0.0182168 31.9701 0.0111344 30.0122C0.00582261 26.3162 0.00582261 22.6196 0.0111344 18.9225C0.0111344 16.2228 -0.0269292 13.5214 0.0376978 10.8235C0.0987835 8.27909 1.0434 6.0585 2.82196 4.23004C5.06178 1.92339 7.88411 0.795794 10.9871 0.266152C11.6608 0.152594 12.3416 0.0878301 13.018 0ZM14.1556 10.9486C14.0671 11.0648 13.9927 11.1589 13.921 11.2529C11.729 14.1131 8.89159 15.844 5.27867 16.2131C5.0423 16.237 4.94137 16.3018 4.94314 16.5679C4.95554 18.6084 4.92101 20.641 4.96616 22.6761C4.97062 23.3947 5.08773 24.1081 5.31319 24.7903C6.44903 27.9938 8.70479 30.1364 11.8122 31.4059C13.4589 32.0793 15.1055 31.9923 16.7362 31.2959C18.6078 30.4974 20.1402 29.2643 21.3903 27.6691C22.7005 25.9959 23.4158 24.1275 23.3503 21.9628C23.2963 20.1938 23.3388 18.4221 23.3388 16.6513V16.2574C19.4532 15.9185 16.4397 14.0856 14.1556 10.9504V10.9486Z" fill="#E42229"/>
<path d="M14.1184 28.3302C12.5638 28.3062 11.1561 27.7934 9.97161 26.7093C9.47673 26.256 9.41653 25.6012 9.82112 25.1497C10.2257 24.6981 10.8728 24.6795 11.3837 25.1248C13.056 26.5816 15.2241 26.5789 16.9133 25.1195C17.425 24.6759 18.0642 24.691 18.4749 25.155C18.8857 25.619 18.8122 26.2631 18.3147 26.7164C17.1364 27.7881 15.7411 28.3036 14.1184 28.3302Z" fill="#E42229"/>
<path d="M11.3085 19.1318C11.309 19.411 11.2543 19.6875 11.1476 19.9454C11.0408 20.2033 10.8841 20.4374 10.6866 20.6343C10.489 20.8312 10.2545 20.987 9.9966 21.0925C9.73867 21.1981 9.46242 21.2514 9.18381 21.2494C8.62639 21.2432 8.09359 21.0184 7.69957 20.6232C7.30555 20.2281 7.08168 19.6939 7.07593 19.1353C7.07779 18.5712 7.30225 18.0307 7.70031 17.6318C8.09837 17.2329 8.63771 17.008 9.20065 17.0061C9.47858 17.0061 9.75378 17.0612 10.0104 17.1682C10.267 17.2751 10.5 17.4319 10.6959 17.6295C10.8918 17.8271 11.0468 18.0615 11.1519 18.3193C11.2571 18.5771 11.3103 18.8532 11.3085 19.1318Z" fill="#E42229"/>
<path d="M19.0776 17.0017C19.6409 16.9998 20.1819 17.2216 20.5824 17.6184C20.983 18.0153 21.2103 18.555 21.2148 19.1194C21.2127 19.6835 20.9881 20.2238 20.5901 20.6227C20.1921 21.0215 19.6529 21.2465 19.09 21.2486C18.5326 21.2484 17.9979 21.0273 17.6026 20.6336C17.2072 20.2399 16.9832 19.7055 16.9795 19.1469C16.9755 18.8677 17.0267 18.5904 17.1302 18.3311C17.2337 18.0718 17.3875 17.8357 17.5825 17.6362C17.7776 17.4368 18.0102 17.278 18.2668 17.1691C18.5234 17.0602 18.799 17.0033 19.0776 17.0017Z" fill="#E42229"/>
</svg>
